<?xml version="1.0" encoding="utf-8"?>
<!-- Generator: Adobe Illustrator 19.2.1, SVG Export Plug-In . SVG Version: 6.00 Build 0)  -->
<svg version="1.1" id="Слой_4" xmlns="http://www.w3.org/2000/svg" xmlns:xlink="http://www.w3.org/1999/xlink" x="0px" y="0px"
	 viewBox="0 0 100 155" style="enable-background:new 0 0 256 155;" xml:space="preserve">
<style type="text/css">
	.st0{fill:#161a36;}
</style>
<path class="st0" d="M16.2,108.3L0,117.1V108l16.2-9.5l12.5,7V36.5l-12.5-6.9v-9.8l32.4,17.8v0.2v9.6v69.1l17.2,9.6l16.2-9.3V87.5
	L59.2,75v-9.8l42.4,23.2v0.1l0.3,0v16.9v7.4v3.1L65.8,136L16.2,108.3z M48.6,17.8L16.2,0v9.8l32.4,17.8V17.8z M65.9,145.2
	l-49.6-27.7L0.1,127v9.2l16.2-8.9L65.9,155l36.1-20.1v-10.5L65.9,145.2z"/>
</svg>
