<svg xmlns="http://www.w3.org/2000/svg" xmlns:xlink="http://www.w3.org/1999/xlink"><symbol id="boroda-logo-white-mobile" viewbox="0 0 100 155">

<path class="st0" d="M16.2,108.3L0,117.1V108l16.2-9.5l12.5,7V36.5l-12.5-6.9v-9.8l32.4,17.8v0.2v9.6v69.1l17.2,9.6l16.2-9.3V87.5
	L59.2,75v-9.8l42.4,23.2v0.1l0.3,0v16.9v7.4v3.1L65.8,136L16.2,108.3z M48.6,17.8L16.2,0v9.8l32.4,17.8V17.8z M65.9,145.2
	l-49.6-27.7L0.1,127v9.2l16.2-8.9L65.9,155l36.1-20.1v-10.5L65.9,145.2z"/>
</symbol><symbol id="boroda-logo-white" viewbox="0 0 256 155">

<path class="st0" d="M16.2,108.3L0,117.1V108l16.2-9.5l12.5,7V36.5l-12.5-6.9v-9.8l32.4,17.8v0.2v9.6v69.1l17.2,9.6l16.2-9.3V87.5
	L59.2,75v-9.8l42.4,23.2v0.1l0.3,0v16.9v7.4v3.1L65.8,136L16.2,108.3z M48.6,17.8L16.2,0v9.8l32.4,17.8V17.8z M65.9,145.2
	l-49.6-27.7L0.1,127v9.2l16.2-8.9L65.9,155l36.1-20.1v-10.5L65.9,145.2z"/>
<g>
	<path class="st0" d="M140.4,112.7c-1.4,0-2.8,0-4.1-0.1c-1.4-0.1-2.8-0.3-4.3-0.6V87.4c1.2-0.2,2.4-0.4,3.8-0.5
		c1.4-0.1,2.7-0.2,3.9-0.2c1.6,0,3.1,0.1,4.4,0.3c1.4,0.2,2.5,0.6,3.5,1.2c1,0.6,1.7,1.3,2.3,2.2c0.5,0.9,0.8,2,0.8,3.4
		c0,2-1,3.6-2.9,4.8c1.6,0.6,2.7,1.4,3.3,2.5c0.6,1,0.9,2.2,0.9,3.5c0,2.7-1,4.6-2.9,6C147.1,112,144.2,112.7,140.4,112.7z
		 M137.5,97h2.8c1.8,0,3-0.2,3.8-0.7c0.8-0.4,1.1-1.2,1.1-2.2c0-1-0.4-1.7-1.2-2.2c-0.8-0.4-1.9-0.6-3.4-0.6c-0.5,0-1,0-1.6,0
		c-0.6,0-1.1,0-1.5,0.1V97z M137.5,101.3v6.5c0.4,0,0.9,0.1,1.4,0.1c0.5,0,1,0,1.6,0c1.7,0,3.1-0.2,4.1-0.7c1-0.5,1.6-1.4,1.6-2.7
		c0-1.2-0.4-2-1.3-2.5c-0.9-0.5-2.1-0.7-3.8-0.7H137.5z"/>
	<path class="st0" d="M174.8,102.7c0,1.5-0.2,2.9-0.7,4.1c-0.4,1.3-1.1,2.3-1.9,3.2c-0.8,0.9-1.8,1.6-3,2.1
		c-1.2,0.5-2.5,0.7-3.9,0.7c-1.4,0-2.7-0.2-3.9-0.7c-1.2-0.5-2.1-1.2-3-2.1c-0.8-0.9-1.5-2-1.9-3.2s-0.7-2.6-0.7-4.1
		c0-1.5,0.2-2.9,0.7-4.1c0.5-1.2,1.1-2.3,2-3.2c0.8-0.9,1.8-1.6,3-2c1.2-0.5,2.4-0.7,3.8-0.7c1.4,0,2.7,0.2,3.8,0.7
		c1.2,0.5,2.1,1.2,3,2c0.8,0.9,1.5,1.9,1.9,3.2C174.6,99.8,174.8,101.2,174.8,102.7z M169.3,102.7c0-1.7-0.3-3-1-4
		c-0.7-1-1.6-1.4-2.9-1.4c-1.2,0-2.2,0.5-2.9,1.4c-0.7,1-1,2.3-1,4c0,1.7,0.3,3,1,4c0.7,1,1.6,1.5,2.9,1.5c1.2,0,2.2-0.5,2.9-1.5
		C168.9,105.7,169.3,104.4,169.3,102.7z"/>
	<path class="st0" d="M191.1,97.9c-0.5-0.1-1.1-0.2-1.7-0.4c-0.7-0.1-1.4-0.2-2.1-0.2c-0.3,0-0.7,0-1.2,0.1
		c-0.5,0.1-0.8,0.1-1.1,0.2v14.7h-5.4V94.1c1-0.3,2.1-0.7,3.4-1c1.3-0.3,2.8-0.5,4.4-0.5c0.3,0,0.6,0,1.1,0.1c0.4,0,0.8,0.1,1.2,0.1
		c0.4,0.1,0.8,0.1,1.2,0.2c0.4,0.1,0.8,0.2,1.1,0.3L191.1,97.9z"/>
	<path class="st0" d="M213.3,102.7c0,1.5-0.2,2.9-0.7,4.1s-1.1,2.3-1.9,3.2c-0.8,0.9-1.8,1.6-3,2.1c-1.2,0.5-2.5,0.7-3.9,0.7
		c-1.4,0-2.7-0.2-3.9-0.7c-1.2-0.5-2.1-1.2-3-2.1s-1.5-2-1.9-3.2s-0.7-2.6-0.7-4.1c0-1.5,0.2-2.9,0.7-4.1c0.5-1.2,1.1-2.3,2-3.2
		c0.8-0.9,1.8-1.6,3-2c1.2-0.5,2.4-0.7,3.8-0.7c1.4,0,2.7,0.2,3.8,0.7c1.2,0.5,2.1,1.2,3,2c0.8,0.9,1.5,1.9,1.9,3.2
		C213.1,99.8,213.3,101.2,213.3,102.7z M207.7,102.7c0-1.7-0.3-3-1-4c-0.7-1-1.6-1.4-2.9-1.4c-1.2,0-2.2,0.5-2.9,1.4
		c-0.7,1-1,2.3-1,4c0,1.7,0.3,3,1,4c0.7,1,1.6,1.5,2.9,1.5c1.2,0,2.2-0.5,2.9-1.5C207.4,105.7,207.7,104.4,207.7,102.7z"/>
	<path class="st0" d="M235,111.7c-0.5,0.1-1,0.3-1.7,0.4c-0.6,0.1-1.3,0.2-2,0.3c-0.7,0.1-1.4,0.2-2.1,0.2c-0.7,0.1-1.4,0.1-2.1,0.1
		c-1.6,0-3-0.2-4.2-0.7c-1.2-0.5-2.3-1.1-3.1-2c-0.9-0.9-1.5-1.9-2-3.1c-0.4-1.2-0.7-2.6-0.7-4.1c0-1.6,0.2-3,0.6-4.2
		c0.4-1.3,0.9-2.3,1.7-3.2c0.7-0.9,1.6-1.5,2.7-2c1.1-0.5,2.3-0.7,3.6-0.7c0.8,0,1.4,0.1,2,0.2c0.6,0.1,1.2,0.4,1.8,0.6v-8.7L235,84
		V111.7z M222.7,102.6c0,1.7,0.4,3,1.1,4.1c0.8,1,1.9,1.5,3.4,1.5c0.5,0,0.9,0,1.4-0.1c0.4,0,0.8-0.1,1-0.1v-9.9
		c-0.3-0.2-0.8-0.4-1.3-0.5c-0.5-0.1-1.1-0.2-1.7-0.2C224,97.3,222.7,99.1,222.7,102.6z"/>
	<path class="st0" d="M247.6,92.6c1.6,0,2.9,0.2,4,0.5c1.1,0.4,1.9,0.9,2.6,1.6c0.6,0.7,1.1,1.5,1.4,2.5c0.3,1,0.4,2.1,0.4,3.2v11.3
		c-0.8,0.2-1.9,0.4-3.2,0.6c-1.4,0.2-3.1,0.3-5,0.3c-1.2,0-2.4-0.1-3.4-0.3c-1-0.2-1.9-0.6-2.6-1.1c-0.7-0.5-1.3-1.2-1.7-2
		c-0.4-0.8-0.6-1.8-0.6-3c0-1.1,0.2-2.1,0.7-2.8c0.4-0.8,1.1-1.4,1.8-1.9c0.8-0.5,1.6-0.8,2.6-1c1-0.2,2-0.3,3-0.3
		c0.7,0,1.3,0,1.9,0.1c0.5,0.1,1,0.1,1.3,0.2v-0.5c0-0.9-0.3-1.7-0.8-2.2c-0.6-0.6-1.5-0.8-2.9-0.8c-0.9,0-1.8,0.1-2.7,0.2
		c-0.9,0.1-1.7,0.3-2.3,0.6l-0.7-4.4c0.3-0.1,0.7-0.2,1.2-0.3c0.5-0.1,1-0.2,1.6-0.3c0.6-0.1,1.1-0.2,1.8-0.2
		C246.4,92.6,247,92.6,247.6,92.6z M248.1,108.5c0.5,0,1,0,1.5,0c0.5,0,0.9-0.1,1.2-0.1v-4.1c-0.2,0-0.5-0.1-1-0.1
		c-0.4,0-0.8-0.1-1.2-0.1c-0.5,0-1,0-1.4,0.1c-0.5,0.1-0.8,0.2-1.2,0.3c-0.3,0.2-0.6,0.4-0.8,0.7c-0.2,0.3-0.3,0.7-0.3,1.1
		c0,0.9,0.3,1.4,0.9,1.8C246.3,108.4,247.1,108.5,248.1,108.5z"/>
</g>
<g>
	<path class="st0" d="M143.5,129.2c0,1.2-0.2,2.3-0.6,3.2c-0.4,0.9-0.9,1.6-1.6,2.2c-0.7,0.6-1.5,1-2.5,1.3c-1,0.3-2,0.4-3.2,0.4
		c-0.6,0-1.2,0-1.9-0.1c-0.7,0-1.3-0.1-1.9-0.3v-13.6c0.6-0.1,1.2-0.2,1.9-0.3c0.7,0,1.3-0.1,1.9-0.1c1.1,0,2.2,0.1,3.2,0.4
		c1,0.3,1.8,0.7,2.5,1.3c0.7,0.6,1.2,1.3,1.6,2.2C143.3,126.9,143.5,128,143.5,129.2z M135.9,134.6c1.9,0,3.3-0.5,4.2-1.4
		c0.9-1,1.4-2.3,1.4-4c0-1.7-0.5-3-1.4-4c-0.9-1-2.3-1.4-4.2-1.4c-0.6,0-1,0-1.3,0c-0.3,0-0.5,0-0.6,0v10.7c0.1,0,0.3,0,0.6,0
		C134.9,134.6,135.3,134.6,135.9,134.6z"/>
	<path class="st0" d="M148.7,123.8c-0.3,0-0.6-0.1-0.9-0.3c-0.2-0.2-0.4-0.5-0.4-0.9c0-0.4,0.1-0.7,0.4-0.9c0.2-0.2,0.5-0.3,0.9-0.3
		c0.3,0,0.6,0.1,0.9,0.3c0.2,0.2,0.4,0.5,0.4,0.9c0,0.4-0.1,0.7-0.4,0.9C149.3,123.7,149,123.8,148.7,123.8z M149.6,136.2h-1.9
		v-10.5h1.9V136.2z"/>
	<path class="st0" d="M160.8,135.1c-0.2,0.1-0.5,0.2-0.9,0.4c-0.5,0.2-1,0.3-1.6,0.3c-0.6,0-1.2-0.1-1.8-0.3c-0.6-0.2-1-0.5-1.5-0.9
		c-0.4-0.4-0.7-1-1-1.6c-0.2-0.6-0.4-1.4-0.4-2.3c0-0.8,0.1-1.5,0.3-2.1c0.2-0.6,0.6-1.2,1-1.7c0.4-0.5,1-0.8,1.6-1.1
		c0.6-0.3,1.3-0.4,2.1-0.4c0.9,0,1.6,0.1,2.3,0.2c0.7,0.1,1.2,0.2,1.6,0.4v9.4c0,1.6-0.4,2.8-1.3,3.5c-0.8,0.7-2.1,1.1-3.8,1.1
		c-0.7,0-1.3-0.1-1.9-0.2c-0.6-0.1-1.1-0.2-1.5-0.4l0.3-1.6c0.4,0.1,0.8,0.3,1.4,0.4c0.5,0.1,1.1,0.2,1.7,0.2c1.1,0,1.9-0.2,2.4-0.7
		c0.5-0.4,0.7-1.2,0.7-2.1V135.1z M160.8,127.3c-0.2-0.1-0.4-0.1-0.8-0.2s-0.7-0.1-1.3-0.1c-1,0-1.8,0.3-2.3,1
		c-0.5,0.7-0.8,1.5-0.8,2.6c0,0.6,0.1,1.1,0.2,1.6c0.2,0.4,0.4,0.8,0.6,1.1c0.3,0.3,0.6,0.5,0.9,0.6c0.3,0.1,0.7,0.2,1.1,0.2
		c0.5,0,1-0.1,1.4-0.2c0.4-0.1,0.7-0.3,1-0.5V127.3z"/>
	<path class="st0" d="M168.2,123.8c-0.3,0-0.6-0.1-0.9-0.3c-0.2-0.2-0.4-0.5-0.4-0.9c0-0.4,0.1-0.7,0.4-0.9c0.2-0.2,0.5-0.3,0.9-0.3
		c0.3,0,0.6,0.1,0.9,0.3c0.2,0.2,0.4,0.5,0.4,0.9c0,0.4-0.1,0.7-0.4,0.9C168.9,123.7,168.6,123.8,168.2,123.8z M169.2,136.2h-1.9
		v-10.5h1.9V136.2z"/>
	<path class="st0" d="M175.6,125.7h4v1.6h-4v4.9c0,0.5,0,1,0.1,1.3c0.1,0.3,0.2,0.6,0.4,0.8c0.2,0.2,0.4,0.3,0.6,0.4
		c0.2,0.1,0.5,0.1,0.8,0.1c0.6,0,1-0.1,1.4-0.2c0.3-0.1,0.6-0.2,0.7-0.3l0.4,1.6c-0.2,0.1-0.5,0.2-1,0.4c-0.5,0.1-1,0.2-1.6,0.2
		c-0.7,0-1.3-0.1-1.8-0.3c-0.5-0.2-0.8-0.5-1.1-0.8c-0.3-0.4-0.5-0.8-0.6-1.3c-0.1-0.5-0.2-1.1-0.2-1.9v-9.4l1.9-0.3V125.7z"/>
	<path class="st0" d="M187,125.4c0.8,0,1.4,0.1,1.9,0.3c0.5,0.2,0.9,0.5,1.3,0.8c0.3,0.4,0.5,0.8,0.7,1.3c0.1,0.5,0.2,1,0.2,1.6v6.6
		c-0.2,0-0.4,0.1-0.7,0.1c-0.3,0-0.6,0.1-1,0.1c-0.4,0-0.8,0.1-1.2,0.1c-0.4,0-0.8,0.1-1.3,0.1c-0.6,0-1.1-0.1-1.6-0.2
		c-0.5-0.1-0.9-0.3-1.3-0.6c-0.4-0.3-0.6-0.6-0.9-1c-0.2-0.4-0.3-1-0.3-1.6c0-0.6,0.1-1.1,0.4-1.5c0.2-0.4,0.6-0.8,1-1
		c0.4-0.3,0.9-0.4,1.4-0.6c0.5-0.1,1.1-0.2,1.7-0.2c0.2,0,0.4,0,0.6,0c0.2,0,0.4,0,0.6,0.1c0.2,0,0.3,0.1,0.5,0.1
		c0.1,0,0.2,0,0.3,0.1v-0.5c0-0.3,0-0.6-0.1-0.9c-0.1-0.3-0.2-0.6-0.4-0.8c-0.2-0.2-0.4-0.4-0.7-0.6c-0.3-0.1-0.7-0.2-1.2-0.2
		c-0.6,0-1.2,0-1.6,0.1c-0.5,0.1-0.8,0.2-1,0.3l-0.2-1.6c0.2-0.1,0.6-0.2,1.2-0.3C185.7,125.5,186.3,125.4,187,125.4z M187.2,134.8
		c0.4,0,0.8,0,1.2,0c0.3,0,0.6-0.1,0.9-0.1v-3.1c-0.1-0.1-0.4-0.1-0.7-0.2c-0.3,0-0.7-0.1-1.1-0.1c-0.3,0-0.6,0-0.9,0.1
		c-0.3,0-0.6,0.1-0.9,0.3c-0.3,0.1-0.5,0.3-0.7,0.5c-0.2,0.2-0.3,0.5-0.3,0.9c0,0.7,0.2,1.1,0.6,1.4
		C185.8,134.7,186.4,134.8,187.2,134.8z"/>
	<path class="st0" d="M198.7,136.4c-1.2,0-2-0.3-2.5-0.7c-0.5-0.5-0.7-1.2-0.7-2.2v-12.6l1.9-0.3v12.6c0,0.3,0,0.6,0.1,0.8
		c0.1,0.2,0.1,0.4,0.3,0.5c0.1,0.1,0.3,0.2,0.5,0.3c0.2,0.1,0.5,0.1,0.7,0.2L198.7,136.4z"/>
</g>
</symbol><symbol id="svg-rec-test" viewbox="0 0 240 336">
<symbol id="Canvas" fill="none">
<rect id="Rectangle 6.27" x="1" y="1" width="238" height="334" rx="1" stroke="#3F51B5" stroke-width="2" stroke-linecap="square" stroke-dasharray="12 12"/>
</symbol>
</symbol></svg>